<svg width="1708" height="464" viewBox="0 0 1708 464" fill="none" xmlns="http://www.w3.org/2000/svg">
    <g clip-path="url(#clip0_68_98)">
        <path
            d="M32.7336 1.9333C37.9336 2.19997 46.7336 2.19997 52.0669 1.9333C57.2669 1.79997 53.0002 1.5333 42.3336 1.5333C31.6669 1.5333 27.4002 1.79997 32.7336 1.9333Z"
            fill="#f8717180" />
        <path
            d="M318.734 1.9333C320.734 2.19997 323.934 2.19997 326.067 1.9333C328.067 1.66663 326.334 1.39997 322.334 1.39997C318.334 1.39997 316.6 1.66663 318.734 1.9333Z"
            fill="#f8717180" />
        <path
            d="M833.667 2.33345C833.267 3.13345 833.8 3.26678 834.867 2.86678C837.267 1.93345 837.667 1.00012 835.8 1.00012C835 1.00012 834.067 1.53345 833.667 2.33345Z"
            fill="#f8717180" />
        <path
            d="M871.667 1.53345C871.667 1.80012 872.6 2.46678 873.8 2.86678C874.867 3.26678 875.4 3.13345 875 2.33345C874.2 1.00012 871.667 0.466784 871.667 1.53345Z"
            fill="#f8717180" />
        <path
            d="M1382.73 1.9333C1384.73 2.19997 1387.93 2.19997 1390.07 1.9333C1392.07 1.66663 1390.33 1.39997 1386.33 1.39997C1382.33 1.39997 1380.6 1.66663 1382.73 1.9333Z"
            fill="#f8717180" />
        <path
            d="M1656.73 1.9333C1661.93 2.19997 1670.73 2.19997 1676.07 1.9333C1681.27 1.79997 1677 1.5333 1666.33 1.5333C1655.67 1.5333 1651.4 1.79997 1656.73 1.9333Z"
            fill="#f8717180" />
        <path
            d="M842.867 14.3334L839 25H825.667H812.467L822.333 14.7334C832.333 4.46669 831 5.26669 817 18.2L809.667 25L796.333 24.8667C783.8 24.8667 783.267 24.7334 786.733 22.8667C788.733 21.8 790.333 20.6 790.333 20.2C790.333 19.8 788.2 20.7334 785.533 22.2C780.2 25.4 784.733 25.1334 722.333 24.8667C708.733 24.7334 696.467 24.7334 695 24.7334C693.533 24.7334 675.533 24.7334 655 24.7334C634.467 24.7334 616.2 24.6 614.333 24.7334C612.467 24.7334 585.533 24.8667 554.333 25.1334L497.667 25.5334L545.667 26.3334C572.067 26.7334 592.2 27.2667 590.333 27.4C588.467 27.6667 587.667 28.0667 588.333 28.4667C589.133 28.7334 595.4 28.2 602.467 27.2667C617.667 25.4 681.533 25.6667 678.333 27.6667C675.8 29.2667 675.933 29.2667 687 27.2667C692.733 26.3334 704.6 25.8 717.667 26.0667C737.4 26.4667 738.733 26.6 735.667 28.4667C733.4 29.8 733.267 30.2 735 29.6667C743.4 26.7334 747.667 26.3334 761.667 26.6L777.267 27L759.933 36.6L742.733 46.3334L718.2 46.2H693.667L712.733 38.7334C723.133 34.6 731.533 31 731.267 30.7334C731 30.4667 721.267 33.9334 709.533 38.3334L688.333 46.3334L651.267 46.0667L614.2 45.6667L645 37.8C661.8 33.4 675.4 29.6667 675.133 29.4C674.867 29.1334 659.133 32.7334 640.067 37.5334L605.4 46.3334L548.867 46.2L492.333 46.0667L539.533 37.9334C565.533 33.4 586.067 29.5334 585.4 29.4C584.6 29.1334 560.6 32.8667 532.067 37.6667L480.067 46.3334L395.533 46.0667L311 45.6667L337 42.7334C415.667 33.9334 452.067 29.6667 449.667 29.2667C448.2 29.1334 412.067 32.8667 369.4 37.6667L291.933 46.3334L163.4 46.2C92.7333 46.0667 36.2 45.8 37.6667 45.5334C39.1333 45.4 79.4 42.3334 127 38.7334C174.733 35.2667 212.067 32.2 210.2 31.9334C208.2 31.6667 181.8 33.4 151.533 35.6667C44.2 43.6667 25.5333 45 13.2667 45.8C-19.1333 48.2 11.6667 49 132.067 49.1334C245.933 49.2667 261.133 49.5334 248.333 51C209.267 55.6667 5 78.3334 3.13333 78.3334C1.93333 78.3334 1 78.8667 1 79.6667C1 80.6 46.7333 81 135.4 81.1334C209.267 81.1334 269.133 81.4 268.333 81.6667C266.733 82.3334 4.6 126.333 2.46667 126.333C1.66667 126.333 1 127.267 1 128.333C1 130.067 17.1333 130.333 135.267 130.6C262.333 131 269.133 131.133 261 133.133C256.2 134.333 196.067 149.533 127.4 166.867C58.7333 184.2 2.06667 198.333 1.66667 198.333C1.26667 198.333 1 199.533 1 201C1 203.667 2.06667 203.667 135.933 203.933L271 204.333L261.667 207.933C256.467 209.933 239.8 216.333 224.333 222.067C172.733 241.533 104.733 267.4 56.3333 285.667C29.9333 295.8 6.73333 304.6 4.73333 305.267C1.8 306.333 1 307.4 1 310.467V314.333L133.133 314.6L265.267 315L133.667 389L2.2 463L12.6 463.4L23 463.8L152.333 389L281.667 314.333H389.4C485 314.333 502.067 314.733 495.933 317.267C495.267 317.4 461.8 348.333 421.533 385.667C381.267 423.133 345.933 456.067 343 458.733L337.667 463.533H349H360.333L437 389L513.667 314.333H622.2C724.867 314.333 730.6 314.467 729.667 316.6C729.133 317.933 717.133 350.2 702.867 388.333C688.6 426.467 676.333 459 675.667 460.6C674.467 463.667 674.467 463.667 685.533 463.667H696.867L718.733 396.733C730.867 359.8 741.8 326.2 743.133 321.933L745.533 314.333H854.333H963.133L965.533 321.933C966.867 326.2 977.8 359.8 989.933 396.6L1011.8 463.667H1023.13C1029.4 463.667 1034.2 463.267 1033.93 462.6C1033.53 462.067 1021.27 429.533 1006.6 390.333C991.933 351.133 979.533 317.933 979 316.6C978.067 314.467 983.8 314.333 1086.47 314.333H1195L1271.67 389L1348.33 463.533H1359.67H1371L1362.6 455.933C1327.8 424.2 1211.8 316.067 1211.8 315.267C1211.67 314.733 1260.07 314.333 1319.4 314.333H1427L1556.33 389L1685.67 463.8L1696.07 463.4L1706.47 463L1575 389L1443.4 315L1575.53 314.6L1707.67 314.333V310.467C1707.67 307.4 1706.87 306.333 1704.07 305.267C1701.93 304.6 1662.87 289.667 1617 272.333C1571.13 255 1520.47 235.8 1504.33 229.667C1488.2 223.533 1467 215.533 1457.13 211.8C1447.27 208.067 1438.87 204.733 1438.6 204.333C1438.2 203.933 1498.6 203.667 1572.73 203.667C1706.73 203.667 1707.67 203.667 1707.67 201C1707.67 199.533 1707.4 198.333 1707 198.333C1706.6 198.333 1649.93 184.2 1581.27 166.867C1512.6 149.533 1452.47 134.333 1447.67 133.133C1439.53 131.133 1446.33 131 1573.4 130.6C1691.53 130.333 1707.67 130.067 1707.67 128.333C1707.67 127.267 1707 126.333 1706.2 126.333C1703.93 126.333 1441.93 82.3334 1440.33 81.6667C1439.67 81.4 1499.4 81.1334 1573.4 81.1334C1661.93 81 1707.67 80.6 1707.67 79.6667C1707.67 78.8667 1706.73 78.3334 1705.53 78.3334C1703.67 78.3334 1499.4 55.6667 1460.33 51C1447.53 49.5334 1462.73 49.2667 1576.73 49.1334C1697 49 1727.8 48.2 1695.4 45.8C1683.13 45 1664.47 43.6667 1557.13 35.6667C1526.87 33.4 1500.47 31.6667 1498.47 31.9334C1496.6 32.2 1534.07 35.2667 1581.67 38.7334C1629.4 42.3334 1669.53 45.4 1671 45.5334C1672.47 45.8 1615.93 46.0667 1545.27 46.2L1416.73 46.3334L1339.27 37.6667C1296.6 32.8667 1260.47 29.1334 1259 29.2667C1256.6 29.6667 1293 33.9334 1371.67 42.7334L1397.67 45.6667L1313.13 46.0667L1228.6 46.3334L1176.6 37.6667C1148.07 32.8667 1124.07 29.1334 1123.27 29.4C1122.6 29.5334 1143.13 33.4 1169.13 37.9334L1216.33 46.0667L1159.67 46.2L1103 46.3334L1066.6 37.1334C1046.47 32.0667 1029.8 27.5334 1029.4 27.1334C1027.8 25.5334 1093.67 25.6667 1106.2 27.2667C1113.27 28.2 1119.67 28.7334 1120.33 28.4667C1121.13 28.0667 1120.2 27.6667 1118.33 27.4C1116.47 27.2667 1136.6 26.7334 1163 26.3334L1211 25.5334L1154.33 25.1334C1123.13 24.8667 1096.2 24.7334 1094.33 24.7334C1092.47 24.6 1074.2 24.7334 1053.67 24.7334C1033.13 24.7334 1015.13 24.7334 1013.67 24.7334C1012.2 24.7334 999.933 24.7334 986.333 24.8667C923.933 25.1334 928.467 25.4 923.133 22.2C920.467 20.7334 918.333 19.8 918.333 20.2C918.333 20.6 919.933 21.8 922.067 22.8667C925.4 24.7334 924.867 24.8667 912.333 24.8667L899 25L891.667 18.2C877.667 5.26669 876.333 4.46669 886.333 14.7334L896.2 25H883H869.667L865.8 14.3334C863.667 8.33336 861.8 3.80002 861.4 4.06669C861.133 4.46669 862.467 9.00003 864.333 14.4667C866.2 19.8 867.667 24.3334 867.667 24.6C867.667 24.8667 861.667 25 854.333 25C847 25 841 24.8667 841 24.6C841 24.3334 842.467 19.8 844.333 14.4667C846.2 9.00003 847.533 4.46669 847.267 4.06669C846.867 3.80002 845 8.33336 842.867 14.3334ZM1061.4 37.1334L1094.47 45.6667L1057.4 46.0667L1020.33 46.3334L999.133 38.3334C987.4 33.9334 977.667 30.4667 977.4 30.7334C977.133 31 985.533 34.6 995.933 38.7334L1015 46.2H990.467L965.933 46.3334L951.133 38.0667C943 33.5334 935.133 29.1334 933.8 28.2C931.667 26.7334 938.467 26.4667 971 26.4667C992.867 26.4667 1011 26.2 1011.27 25.9334C1012.2 25 1027.4 28.3334 1061.4 37.1334ZM797.667 36.3334L787 46.2L766.333 46.3334H745.667L763 36.3334L780.333 26.4667H794.333H808.333L797.667 36.3334ZM834.6 36.3334L831 46.3334H810.333L789.667 46.2L800.067 36.3334L810.6 26.3334H824.333H838.2L834.6 36.3334ZM871.4 35.4C873 40.4667 874.333 44.8667 874.333 45.4C874.333 45.9334 865.4 46.3334 854.333 46.3334C843.4 46.3334 834.333 45.9334 834.333 45.4C834.333 44.8667 835.667 40.4667 837.267 35.4L840.2 26.3334H854.333H868.467L871.4 35.4ZM908.6 36.3334L919 46.2L898.333 46.3334H877.667L874.067 36.3334L870.467 26.3334H884.333H898.067L908.6 36.3334ZM945.667 36.3334L963 46.3334H942.333L921.667 46.2L911 36.3334L900.333 26.4667H914.333H928.333L945.667 36.3334ZM451.667 51C446.2 51.9334 407.533 58.4667 365.8 65.5334L289.933 78.3334L159.8 78.2L29.6667 78.0667L62.3333 74.2C80.3333 72.2 105.533 69.2667 118.333 67.8C131.133 66.2 168.333 62.0667 201 58.3334C233.667 54.7334 263.933 51.1334 268.333 50.4667C272.733 49.8 318.067 49.4 369 49.2667C449 49.2667 460.333 49.5334 451.667 51ZM536.333 63.6667L479 78.3334L392.333 78.2L305.667 78.0667L327 74.3334C338.733 72.2 359.4 68.6 373 66.3334C386.6 64.0667 414.2 59.2667 434.333 55.6667L471 49.2667H532.333L593.667 49.1334L536.333 63.6667ZM679.533 49.5334C679.267 49.8 662.2 56.3334 641.667 64.2L604.333 78.3334L547 78.2C498.2 78.0667 490.6 77.8 495.667 76.3334C499 75.4 520.867 69.8 544.333 63.6667C567.8 57.6667 589.667 51.9334 593 51C597.133 49.8 611.4 49.2667 639.533 49.1334C661.8 49.1334 679.8 49.2667 679.533 49.5334ZM736.867 49.5334C736.6 49.8 725 56.3334 711.133 64.2L686.067 78.3334L648.867 78.0667L611.667 77.6667L648.067 63.5334L684.333 49.2667L710.867 49.1334C725.533 49 737.133 49.2667 736.867 49.5334ZM772.733 59.4C766.6 65.2667 759.533 71.8 756.733 74.2L751.933 78.3334L721.8 78.0667L691.533 77.6667L715.933 63.4L740.333 49.2667L762.067 49.1334L783.8 49L772.733 59.4ZM824.467 63.6667L819 78.3334H787.8H756.733L771.8 63.6667L787 49.1334L808.467 49H829.933L824.467 63.6667ZM880.6 63C883 70.3334 885 76.7334 885 77.2667C885 77.9334 871.267 78.3334 854.333 78.3334C837.533 78.3334 823.667 77.9334 823.667 77.5334C823.667 76.6 831.8 51.2667 832.6 49.9334C832.867 49.4 842.867 49.1334 854.733 49.2667L876.2 49.6667L880.6 63ZM936.867 63.6667L951.933 78.3334H920.867H889.667L884.2 63.6667L878.733 49H900.2L921.667 49.1334L936.867 63.6667ZM992.2 63.2667L1017.13 77.6667L986.867 78.0667L956.733 78.3334L951.933 74.2C949.133 71.8 942.067 65.2667 935.933 59.4L924.867 49H946.067H967.4L992.2 63.2667ZM1059.93 63.2667L1097 77.6667L1059.8 78.0667L1022.6 78.3334L997.533 64.2C983.667 56.3334 972.067 49.8 971.8 49.5334C971.533 49.2667 982.867 49 997 49H1022.87L1059.93 63.2667ZM1117.4 51.5334C1122.6 53 1145 58.7334 1167 64.4667C1189 70.0667 1209.67 75.4 1213 76.3334C1218.07 77.8 1210.47 78.0667 1161.67 78.2L1104.33 78.3334L1067 64.2C1046.47 56.3334 1029.4 49.8 1029.13 49.5334C1028.87 49.2667 1046.33 49 1068.2 49C1103 49 1108.87 49.2667 1117.4 51.5334ZM1296.73 59.6667C1331 65.5334 1368.87 72.0667 1381 74.2L1403 78.0667L1316.33 78.2L1229.67 78.3334L1172.33 63.6667L1115 49.1334H1174.73L1234.47 49L1296.73 59.6667ZM1472.33 54.0667C1508.73 58.4667 1573.53 65.9334 1639.53 73.2667L1678.87 77.6667L1548.87 78.0667L1419 78.3334L1343 65.5334C1301.27 58.4667 1262.47 51.9334 1257 51C1248.33 49.5334 1260.2 49.2667 1342.33 49.5334L1437.67 49.8L1472.33 54.0667ZM464.867 81.5334C464.6 81.8 424.6 92.0667 376.067 104.2L287.933 126.333L156.733 126.2C84.7333 126.067 27.1333 125.667 29 125.4C30.8667 125.133 89 115 158.333 103L284.333 81.2667L374.867 81.1334C424.733 81 465.133 81.2667 464.867 81.5334ZM590.333 83.2667C586.333 85 531 106.2 489.4 121.8L477.267 126.333L390.333 126.067L303.4 125.667L319.933 121.533C345.933 114.867 412.333 97.6667 445 89.1334L475 81.2667H535C590.2 81.2667 594.6 81.4 590.333 83.2667ZM679.267 81.8C678.867 82.2 661 92.4667 639.533 104.467L600.6 126.333L544.2 126.067L487.667 125.667L544.733 103.4L601.667 81.2667L640.867 81.1334C662.467 81 679.8 81.4 679.267 81.8ZM746.333 84.2C744.467 85.9334 733.533 96.0667 721.933 106.867L700.867 126.333H654.067H607.133L646.333 103.667L685.667 81H717.667H749.667L746.333 84.2ZM817 82.2C817 82.7334 813.4 92.8667 809.133 104.467L801.267 125.667L754.333 126.067L707.4 126.333L730.467 103.8L753.667 81.1334L785.4 81C802.733 81 817 81.5334 817 82.2ZM893.133 101.933C896.867 113.533 900.333 123.8 900.733 124.6C901.133 125.933 891.267 126.333 854.333 126.333C817.4 126.333 807.533 125.933 807.933 124.6C808.333 123.8 811.8 113.533 815.533 101.933L822.6 81H854.333H886.067L893.133 101.933ZM978.2 103.8L1001.27 126.333L954.333 126.067L907.4 125.667L899.533 104.467C895.267 92.8667 891.667 82.7334 891.667 82.2C891.667 81.5334 905.933 81 923.4 81L955 81.1334L978.2 103.8ZM1062.33 103.667L1101.53 126.333H1054.6H1007.8L986.733 106.867C975.133 96.0667 964.2 85.9334 962.333 84.2L959 81H991H1023L1062.33 103.667ZM1163.27 103.267L1221 125.667L1164.47 126.067L1108.07 126.333L1069.13 104.467C1047.67 92.4667 1029.8 82.2 1029.4 81.8C1028.87 81.4 1045.93 81 1067 81H1105.53L1163.27 103.267ZM1263.4 89.1334C1280.73 93.6667 1312.07 101.8 1333 107.133C1353.93 112.6 1378.73 119 1388.07 121.267L1405.27 125.667L1318.33 126.067L1231.4 126.333L1219.27 121.8C1177.67 106.2 1122.33 85 1118.33 83.2667C1114.07 81.4 1118.33 81.2667 1172.73 81.1334L1231.67 81L1263.4 89.1334ZM1542.2 101.8C1608.6 113.267 1667.53 123.4 1673 124.333C1681.53 125.8 1663.93 126.067 1551.93 126.2L1420.73 126.333L1332.6 104.2C1284.07 92.0667 1244.07 81.8 1243.8 81.5334C1243.53 81.2667 1283.27 81 1332.33 81H1421.4L1542.2 101.8ZM463 131.533C458.867 133.267 405.8 153.4 347 175.667C317.667 186.733 292.2 196.333 290.333 197C288.2 197.933 239.133 198.2 155.667 198.067L24.4667 197.667L36.3333 194.733C43 193 58.8667 189 71.6667 185.667C84.4667 182.333 107.933 176.2 123.667 172.2C139.4 168.2 159 163.133 167 161C175.133 158.867 196.067 153.4 213.667 148.867C231.267 144.333 254.333 138.467 265 135.667L284.333 130.6L375 130.467C424.867 130.467 464.467 131 463 131.533ZM591 131.533C590.2 132.2 563.4 147.4 531.133 165.533L472.733 198.333L387.267 198.067L301.8 197.667L355.133 177.133C384.333 165.8 423.4 150.733 441.667 143.533L475 130.467H533.667C567 130.333 591.667 130.867 591 131.533ZM692.333 134.2C690.067 136.333 673.667 151.667 655.8 168.2L623.267 198.333H553.133C510.867 198.333 483.8 197.8 485 197C486.067 196.333 512.467 181.133 543.667 163.133L600.333 130.333H648.333H696.333L692.333 134.2ZM794.733 142.6C792.2 149.4 786.467 164.733 782.067 176.6L774.067 198.333H703.8L633.667 198.2L668.333 164.333L703 130.467L751.133 130.333H799.4L794.733 142.6ZM913.667 164.333L924.467 197.667L889.4 198.067C870.067 198.2 838.6 198.2 819.267 198.067L784.2 197.667L794.6 165.667C800.333 148.067 805.267 132.867 805.667 131.933C806.067 130.6 816.6 130.333 854.467 130.6L902.733 131L913.667 164.333ZM1040.33 164.333L1075 198.2L1004.87 198.333H934.6L926.6 176.6C922.2 164.733 916.467 149.4 913.933 142.6L909.267 130.333H957.533L1005.67 130.467L1040.33 164.333ZM1165 163.133C1196.2 181.133 1222.6 196.333 1223.67 197C1224.87 197.8 1197.8 198.333 1155.53 198.333H1085.4L1052.87 168.2C1035 151.667 1018.6 136.333 1016.33 134.2L1012.33 130.333H1060.33H1108.33L1165 163.133ZM1271.93 145.533C1293.4 153.8 1332.6 169 1358.87 179.133L1406.87 197.667L1321.4 198.067L1235.93 198.333L1177.53 165.533C1145.27 147.4 1118.47 132.2 1117.8 131.533C1117 130.867 1141.53 130.333 1174.6 130.333H1232.87L1271.93 145.533ZM1454.2 138.467C1471.53 142.867 1493.67 148.6 1503.4 151.133C1541.13 160.867 1557.4 165.133 1585 172.2C1600.73 176.2 1624.2 182.333 1637 185.667C1649.8 189 1665.67 193 1672.33 194.733L1684.2 197.667L1553 198.067C1469.53 198.2 1420.47 197.933 1418.33 197C1416.47 196.333 1391 186.733 1361.67 175.667C1302.87 153.4 1249.8 133.267 1245.67 131.533C1244.2 131 1283.4 130.467 1332.87 130.467L1422.73 130.333L1454.2 138.467ZM460.333 204.867C459.533 205.533 418.867 228.6 369.8 256.2L280.733 306.333L151.8 306.067C30.0667 305.667 23.2667 305.533 29 303.4C34.8667 301.267 251.667 217.267 274.333 208.333L285.667 203.8H373.667C426.467 203.667 461 204.2 460.333 204.867ZM615.667 205.533C614.6 206.6 589.667 229.667 560.333 256.867L507 306.333H401.667C335.533 306.333 297.133 305.8 298.333 305C299.4 304.333 339 281.267 386.333 253.8L472.333 203.933L545 203.8C607.533 203.667 617.267 203.933 615.667 205.533ZM771.267 205.267C771 206.2 762.333 229.4 752.2 256.6L733.667 306.333H627.667H521.667L525.667 302.6C527.933 300.467 551.667 277.4 578.6 251.267L627.533 203.667H699.8C757 203.667 771.8 204.067 771.267 205.267ZM943.267 254.333C952.2 281.8 959.667 304.733 959.667 305.267C959.667 305.933 912.333 306.333 854.333 306.333C796.467 306.333 749 305.933 749 305.533C749 304.467 781.133 205.933 781.933 204.6C782.2 204.067 815 203.8 854.6 203.933L926.867 204.333L943.267 254.333ZM1130.07 251.267C1157 277.4 1180.73 300.467 1183 302.6L1187 306.333H1081H975L956.467 256.6C946.333 229.4 937.667 206.2 937.4 205.267C936.867 204.067 951.667 203.667 1008.87 203.667H1081.13L1130.07 251.267ZM1319.8 252.467C1366.33 279.267 1406.2 302.333 1408.33 303.8C1412.33 306.2 1411 306.333 1307 306.333H1201.67L1148.33 256.867C1119 229.667 1094.07 206.6 1093 205.533C1091.4 203.933 1100.87 203.667 1163.27 203.667H1235.27L1319.8 252.467ZM1466.6 220.867C1633.67 285.667 1674.33 301.533 1679.67 303.4C1685.4 305.533 1678.47 305.667 1556.87 306.067L1427.93 306.333L1338.87 256.2C1289.8 228.6 1249.13 205.533 1248.47 204.867C1247.67 204.2 1281.93 203.667 1334.73 203.667H1422.2L1466.6 220.867Z"
            fill="#f8717180" />
        <path
            d="M971.667 28.9999C972.734 29.6666 974.334 30.3333 975 30.3333C975.8 30.3333 975.4 29.6666 974.334 28.9999C973.267 28.3333 971.8 27.6666 971 27.6666C970.334 27.6666 970.6 28.3333 971.667 28.9999Z"
            fill="#f8717180" />
        <path
            d="M18.0671 11.2668C23.2671 11.5335 32.0671 11.5335 37.4004 11.2668C42.6004 11.1335 38.3337 10.8668 27.6671 10.8668C17.0004 10.8668 12.7337 11.1335 18.0671 11.2668Z"
            fill="#f8717180" />
        <path
            d="M302.734 11.2668C306.2 11.5335 311.667 11.5335 314.734 11.2668C317.8 11.0001 315 10.8668 308.334 10.8668C301.8 10.8668 299.267 11.0001 302.734 11.2668Z"
            fill="#f8717180" />
        <path
            d="M488.733 11.2668C491.133 11.5335 494.733 11.5335 496.733 11.2668C498.733 11.0001 496.733 10.7335 492.333 10.7335C487.933 10.7335 486.333 11.0001 488.733 11.2668Z"
            fill="#f8717180" />
        <path
            d="M611.4 11.2668C613 11.5335 615.667 11.5335 617.4 11.2668C619 11.0001 617.667 10.7335 614.334 10.7335C611 10.7335 609.667 11.0001 611.4 11.2668Z"
            fill="#f8717180" />
        <path
            d="M692.734 11.2668C693.534 11.5335 695.134 11.5335 696.067 11.2668C696.867 10.8668 696.2 10.6001 694.334 10.6001C692.467 10.6001 691.8 10.8668 692.734 11.2668Z"
            fill="#f8717180" />
        <path
            d="M747.4 11.2668C748.333 11.6668 749.533 11.5334 749.933 11.1334C750.467 10.7334 749.667 10.3334 748.2 10.4668C746.733 10.4668 746.333 10.8668 747.4 11.2668Z"
            fill="#f8717180" />
        <path
            d="M803.667 11.6667C802.6 12.3333 802.334 13 803 13C803.8 13 805.267 12.3333 806.334 11.6667C807.4 11 807.8 10.3333 807 10.3333C806.334 10.3333 804.734 11 803.667 11.6667Z"
            fill="#f8717180" />
        <path
            d="M902.333 11.6667C903.4 12.3333 905 13 905.667 13C906.467 13 906.067 12.3333 905 11.6667C903.933 11 902.467 10.3333 901.667 10.3333C901 10.3333 901.267 11 902.333 11.6667Z"
            fill="#f8717180" />
        <path
            d="M959.4 11.2668C960.333 11.6668 961.533 11.5334 961.933 11.1334C962.467 10.7334 961.667 10.3334 960.2 10.4668C958.733 10.4668 958.333 10.8668 959.4 11.2668Z"
            fill="#f8717180" />
        <path
            d="M1012.73 11.2668C1013.53 11.5335 1015.13 11.5335 1016.07 11.2668C1016.87 10.8668 1016.2 10.6001 1014.33 10.6001C1012.47 10.6001 1011.8 10.8668 1012.73 11.2668Z"
            fill="#f8717180" />
        <path
            d="M1091.4 11.2668C1093 11.5335 1095.67 11.5335 1097.4 11.2668C1099 11.0001 1097.67 10.7335 1094.33 10.7335C1091 10.7335 1089.67 11.0001 1091.4 11.2668Z"
            fill="#f8717180" />
        <path
            d="M1212.73 11.2668C1215.13 11.5335 1218.73 11.5335 1220.73 11.2668C1222.73 11.0001 1220.73 10.7335 1216.33 10.7335C1211.93 10.7335 1210.33 11.0001 1212.73 11.2668Z"
            fill="#f8717180" />
        <path
            d="M1394.73 11.2668C1398.2 11.5335 1403.67 11.5335 1406.73 11.2668C1409.8 11.0001 1407 10.8668 1400.33 10.8668C1393.8 10.8668 1391.27 11.0001 1394.73 11.2668Z"
            fill="#f8717180" />
        <path
            d="M1671.4 11.2668C1676.6 11.5335 1685.4 11.5335 1690.73 11.2668C1695.93 11.1335 1691.67 10.8668 1681 10.8668C1670.33 10.8668 1666.07 11.1335 1671.4 11.2668Z"
            fill="#f8717180" />
        <path
            d="M265.4 12.6C268.867 12.8667 274.467 12.8667 278.067 12.6C281.533 12.3334 278.6 12.2 271.667 12.2C264.733 12.2 261.8 12.3334 265.4 12.6Z"
            fill="#f8717180" />
        <path
            d="M464.733 12.6C467.133 12.8667 470.733 12.8667 472.733 12.6C474.733 12.3334 472.733 12.0667 468.333 12.0667C463.933 12.0667 462.333 12.3334 464.733 12.6Z"
            fill="#f8717180" />
        <path
            d="M595.4 12.6C597 12.8667 599.667 12.8667 601.4 12.6C603 12.3334 601.667 12.0667 598.334 12.0667C595 12.0667 593.667 12.3334 595.4 12.6Z"
            fill="#f8717180" />
        <path
            d="M682.733 12.6C683.933 12.8667 685.8 12.8667 686.733 12.6C687.533 12.2 686.6 11.9334 684.333 11.9334C682.2 11.9334 681.4 12.2 682.733 12.6Z"
            fill="#f8717180" />
        <path
            d="M739.4 12.6C740.2 12.8667 741.8 12.8667 742.734 12.6C743.534 12.2 742.867 11.9334 741 11.9334C739.134 11.9334 738.467 12.2 739.4 12.6Z"
            fill="#f8717180" />
        <path
            d="M778.067 12.6C779 13 780.2 12.8667 780.6 12.4667C781.134 12.0667 780.334 11.6667 778.867 11.8C777.4 11.8 777 12.2 778.067 12.6Z"
            fill="#f8717180" />
        <path
            d="M928.734 12.6C929.667 13 930.867 12.8667 931.267 12.4667C931.8 12.0667 931 11.6667 929.534 11.8C928.067 11.8 927.667 12.2 928.734 12.6Z"
            fill="#f8717180" />
        <path
            d="M966.067 12.6C966.867 12.8667 968.467 12.8667 969.4 12.6C970.2 12.2 969.533 11.9334 967.667 11.9334C965.8 11.9334 965.133 12.2 966.067 12.6Z"
            fill="#f8717180" />
        <path
            d="M1022.73 12.6C1023.93 12.8667 1025.8 12.8667 1026.73 12.6C1027.53 12.2 1026.6 11.9334 1024.33 11.9334C1022.2 11.9334 1021.4 12.2 1022.73 12.6Z"
            fill="#f8717180" />
        <path
            d="M1107.4 12.6C1109 12.8667 1111.67 12.8667 1113.4 12.6C1115 12.3334 1113.67 12.0667 1110.33 12.0667C1107 12.0667 1105.67 12.3334 1107.4 12.6Z"
            fill="#f8717180" />
        <path
            d="M1236.73 12.6C1239.13 12.8667 1242.73 12.8667 1244.73 12.6C1246.73 12.3334 1244.73 12.0667 1240.33 12.0667C1235.93 12.0667 1234.33 12.3334 1236.73 12.6Z"
            fill="#f8717180" />
        <path
            d="M1430.73 12.6C1434.2 12.8667 1439.8 12.8667 1443.4 12.6C1446.87 12.3334 1443.93 12.2 1437 12.2C1430.07 12.2 1427.13 12.3334 1430.73 12.6Z"
            fill="#f8717180" />
        <path
            d="M217.4 15.2668C218.6 15.5335 220.733 15.5335 222.067 15.2668C223.267 14.8668 222.2 14.6001 219.667 14.6001C217.133 14.6001 216.067 14.8668 217.4 15.2668Z"
            fill="#f8717180" />
        <path
            d="M432.734 15.2668C433.667 15.6668 434.867 15.5334 435.267 15.1334C435.8 14.7334 435 14.3334 433.534 14.4668C432.067 14.4668 431.667 14.8668 432.734 15.2668Z"
            fill="#f8717180" />
        <path
            d="M574.067 15.2668C575 15.6668 576.2 15.5334 576.6 15.1334C577.134 14.7334 576.334 14.3334 574.867 14.4668C573.4 14.4668 573 14.8668 574.067 15.2668Z"
            fill="#f8717180" />
        <path
            d="M1132.73 15.2668C1133.67 15.6668 1134.87 15.5334 1135.27 15.1334C1135.8 14.7334 1135 14.3334 1133.53 14.4668C1132.07 14.4668 1131.67 14.8668 1132.73 15.2668Z"
            fill="#f8717180" />
        <path
            d="M1274.07 15.2668C1275 15.6668 1276.2 15.5334 1276.6 15.1334C1277.13 14.7334 1276.33 14.3334 1274.87 14.4668C1273.4 14.4668 1273 14.8668 1274.07 15.2668Z"
            fill="#f8717180" />
        <path
            d="M1486.73 15.2668C1487.93 15.5335 1490.07 15.5335 1491.4 15.2668C1492.6 14.8668 1491.53 14.6001 1489 14.6001C1486.47 14.6001 1485.4 14.8668 1486.73 15.2668Z"
            fill="#f8717180" />
        <path
            d="M197.4 16.6C198.6 16.8667 200.733 16.8667 202.067 16.6C203.267 16.2 202.2 15.9334 199.667 15.9334C197.133 15.9334 196.067 16.2 197.4 16.6Z"
            fill="#f8717180" />
        <path
            d="M418.067 16.6C418.867 16.8667 420.467 16.8667 421.4 16.6C422.2 16.2 421.533 15.9334 419.667 15.9334C417.8 15.9334 417.133 16.2 418.067 16.6Z"
            fill="#f8717180" />
        <path
            d="M1287.4 16.6C1288.2 16.8667 1289.8 16.8667 1290.73 16.6C1291.53 16.2 1290.87 15.9334 1289 15.9334C1287.13 15.9334 1286.47 16.2 1287.4 16.6Z"
            fill="#f8717180" />
        <path
            d="M1506.73 16.6C1507.93 16.8667 1510.07 16.8667 1511.4 16.6C1512.6 16.2 1511.53 15.9334 1509 15.9334C1506.47 15.9334 1505.4 16.2 1506.73 16.6Z"
            fill="#f8717180" />
        <path
            d="M164.067 17.9333C166.067 18.2 169 18.2 170.734 17.9333C172.334 17.6666 170.734 17.4 167 17.4C163.4 17.4 161.934 17.6666 164.067 17.9333Z"
            fill="#f8717180" />
        <path
            d="M396.733 17.9333C397.533 18.2 399.133 18.2 400.067 17.9333C400.867 17.5333 400.2 17.2666 398.333 17.2666C396.467 17.2666 395.8 17.5333 396.733 17.9333Z"
            fill="#f8717180" />
        <path
            d="M550.067 17.9333C550.867 18.2 552.467 18.2 553.4 17.9333C554.2 17.5333 553.533 17.2666 551.667 17.2666C549.8 17.2666 549.133 17.5333 550.067 17.9333Z"
            fill="#f8717180" />
        <path
            d="M1155.4 17.9333C1156.2 18.2 1157.8 18.2 1158.73 17.9333C1159.53 17.5333 1158.87 17.2666 1157 17.2666C1155.13 17.2666 1154.47 17.5333 1155.4 17.9333Z"
            fill="#f8717180" />
        <path
            d="M1308.07 17.9333C1309.27 18.2 1311.13 18.2 1312.07 17.9333C1312.87 17.5333 1311.93 17.2666 1309.67 17.2666C1307.53 17.2666 1306.73 17.5333 1308.07 17.9333Z"
            fill="#f8717180" />
        <path
            d="M1538.73 17.9333C1540.73 18.2 1543.67 18.2 1545.4 17.9333C1547 17.6666 1545.4 17.4 1541.67 17.4C1538.07 17.4 1536.6 17.6666 1538.73 17.9333Z"
            fill="#f8717180" />
        <path
            d="M141.4 19.2668C143.4 19.5335 146.334 19.5335 148.067 19.2668C149.667 19.0001 148.067 18.7335 144.334 18.7335C140.734 18.7335 139.267 19.0001 141.4 19.2668Z"
            fill="#f8717180" />
        <path
            d="M382.733 19.2668C383.933 19.5335 385.8 19.5335 386.733 19.2668C387.533 18.8668 386.6 18.6001 384.333 18.6001C382.2 18.6001 381.4 18.8668 382.733 19.2668Z"
            fill="#f8717180" />
        <path
            d="M540.067 19.2668C541.267 19.5335 543.134 19.5335 544.067 19.2668C544.867 18.8668 543.934 18.6001 541.667 18.6001C539.534 18.6001 538.734 18.8668 540.067 19.2668Z"
            fill="#f8717180" />
        <path
            d="M646.067 19.2668C647 19.6668 648.2 19.5334 648.6 19.1334C649.134 18.7334 648.334 18.3334 646.867 18.4668C645.4 18.4668 645 18.8668 646.067 19.2668Z"
            fill="#f8717180" />
        <path
            d="M1060.73 19.2668C1061.67 19.6668 1062.87 19.5334 1063.27 19.1334C1063.8 18.7334 1063 18.3334 1061.53 18.4668C1060.07 18.4668 1059.67 18.8668 1060.73 19.2668Z"
            fill="#f8717180" />
        <path
            d="M1165.4 19.2668C1166.6 19.5335 1168.47 19.5335 1169.4 19.2668C1170.2 18.8668 1169.27 18.6001 1167 18.6001C1164.87 18.6001 1164.07 18.8668 1165.4 19.2668Z"
            fill="#f8717180" />
        <path
            d="M1322.73 19.2668C1323.93 19.5335 1325.8 19.5335 1326.73 19.2668C1327.53 18.8668 1326.6 18.6001 1324.33 18.6001C1322.2 18.6001 1321.4 18.8668 1322.73 19.2668Z"
            fill="#f8717180" />
        <path
            d="M1561.4 19.2668C1563.4 19.5335 1566.33 19.5335 1568.07 19.2668C1569.67 19.0001 1568.07 18.7335 1564.33 18.7335C1560.73 18.7335 1559.27 19.0001 1561.4 19.2668Z"
            fill="#f8717180" />
        <path
            d="M109.4 20.6C111.4 20.8667 114.6 20.8667 116.733 20.6C118.733 20.3334 117 20.0667 113 20.0667C109 20.0667 107.267 20.3334 109.4 20.6Z"
            fill="#f8717180" />
        <path
            d="M362.067 20.6C363.667 20.8667 366.067 20.8667 367.4 20.6C368.6 20.2 367.267 19.9334 364.333 20.0667C361.4 20.0667 360.333 20.3334 362.067 20.6Z"
            fill="#f8717180" />
        <path
            d="M526.733 20.6C527.933 20.8667 529.8 20.8667 530.733 20.6C531.533 20.2 530.6 19.9334 528.333 19.9334C526.2 19.9334 525.4 20.2 526.733 20.6Z"
            fill="#f8717180" />
        <path
            d="M636.734 20.6C637.667 21 638.867 20.8667 639.267 20.4667C639.8 20.0667 639 19.6667 637.534 19.8C636.067 19.8 635.667 20.2 636.734 20.6Z"
            fill="#f8717180" />
        <path
            d="M1070.07 20.6C1071 21 1072.2 20.8667 1072.6 20.4667C1073.13 20.0667 1072.33 19.6667 1070.87 19.8C1069.4 19.8 1069 20.2 1070.07 20.6Z"
            fill="#f8717180" />
        <path
            d="M1178.73 20.6C1179.93 20.8667 1181.8 20.8667 1182.73 20.6C1183.53 20.2 1182.6 19.9334 1180.33 19.9334C1178.2 19.9334 1177.4 20.2 1178.73 20.6Z"
            fill="#f8717180" />
        <path
            d="M1342.07 20.6C1343.67 20.8667 1346.07 20.8667 1347.4 20.6C1348.6 20.2 1347.27 19.9334 1344.33 20.0667C1341.4 20.0667 1340.33 20.3334 1342.07 20.6Z"
            fill="#f8717180" />
        <path
            d="M1592.07 20.6C1594.07 20.8667 1597.27 20.8667 1599.4 20.6C1601.4 20.3334 1599.67 20.0667 1595.67 20.0667C1591.67 20.0667 1589.93 20.3334 1592.07 20.6Z"
            fill="#f8717180" />
        <path
            d="M84.5999 21.9333C86.9999 22.2 91.2666 22.2 93.9333 21.9333C96.7333 21.6666 94.8666 21.4 89.6666 21.4C84.5999 21.4 82.3333 21.6666 84.5999 21.9333Z"
            fill="#f8717180" />
        <path
            d="M346.067 21.9333C347.667 22.2 350.067 22.2 351.4 21.9333C352.6 21.5333 351.267 21.2666 348.333 21.4C345.4 21.4 344.333 21.6666 346.067 21.9333Z"
            fill="#f8717180" />
        <path
            d="M516.067 21.9333C517.267 22.2 519.134 22.2 520.067 21.9333C520.867 21.5333 519.934 21.2666 517.667 21.2666C515.534 21.2666 514.734 21.5333 516.067 21.9333Z"
            fill="#f8717180" />
        <path
            d="M630.067 21.9333C631 22.3333 632.2 22.2 632.6 21.8C633.134 21.4 632.334 21 630.867 21.1333C629.4 21.1333 629 21.5333 630.067 21.9333Z"
            fill="#f8717180" />
        <path
            d="M704.734 21.9333C705.667 22.3333 706.867 22.2 707.267 21.8C707.8 21.4 707 21 705.534 21.1333C704.067 21.1333 703.667 21.5333 704.734 21.9333Z"
            fill="#f8717180" />
        <path
            d="M1002.07 21.9333C1003 22.3333 1004.2 22.2 1004.6 21.8C1005.13 21.4 1004.33 21 1002.87 21.1333C1001.4 21.1333 1001 21.5333 1002.07 21.9333Z"
            fill="#f8717180" />
        <path
            d="M1076.73 21.9333C1077.67 22.3333 1078.87 22.2 1079.27 21.8C1079.8 21.4 1079 21 1077.53 21.1333C1076.07 21.1333 1075.67 21.5333 1076.73 21.9333Z"
            fill="#f8717180" />
        <path
            d="M1189.4 21.9333C1190.6 22.2 1192.47 22.2 1193.4 21.9333C1194.2 21.5333 1193.27 21.2666 1191 21.2666C1188.87 21.2666 1188.07 21.5333 1189.4 21.9333Z"
            fill="#f8717180" />
        <path
            d="M1358.07 21.9333C1359.67 22.2 1362.07 22.2 1363.4 21.9333C1364.6 21.5333 1363.27 21.2666 1360.33 21.4C1357.4 21.4 1356.33 21.6666 1358.07 21.9333Z"
            fill="#f8717180" />
        <path
            d="M1613.93 21.9333C1616.33 22.2 1620.6 22.2 1623.27 21.9333C1626.07 21.6666 1624.2 21.4 1619 21.4C1613.93 21.4 1611.67 21.6666 1613.93 21.9333Z"
            fill="#f8717180" />
        <path
            d="M56.7334 23.2668C59.8001 23.5335 64.6001 23.5335 67.4001 23.2668C70.0668 23.0001 67.5334 22.7335 61.6668 22.7335C55.8001 22.7335 53.5334 23.0001 56.7334 23.2668Z"
            fill="#f8717180" />
        <path
            d="M325.4 23.2668C327.4 23.5335 330.334 23.5335 332.067 23.2668C333.667 23.0001 332.067 22.7335 328.334 22.7335C324.734 22.7335 323.267 23.0001 325.4 23.2668Z"
            fill="#f8717180" />
        <path
            d="M502.734 23.2668C503.934 23.5335 506.067 23.5335 507.4 23.2668C508.6 22.8668 507.534 22.6001 505 22.6001C502.467 22.6001 501.4 22.8668 502.734 23.2668Z"
            fill="#f8717180" />
        <path
            d="M620.734 23.2668C621.534 23.5335 623.134 23.5335 624.067 23.2668C624.867 22.8668 624.2 22.6001 622.334 22.6001C620.467 22.6001 619.8 22.8668 620.734 23.2668Z"
            fill="#f8717180" />
        <path
            d="M1084.73 23.2668C1085.53 23.5335 1087.13 23.5335 1088.07 23.2668C1088.87 22.8668 1088.2 22.6001 1086.33 22.6001C1084.47 22.6001 1083.8 22.8668 1084.73 23.2668Z"
            fill="#f8717180" />
        <path
            d="M1201.4 23.2668C1202.6 23.5335 1204.73 23.5335 1206.07 23.2668C1207.27 22.8668 1206.2 22.6001 1203.67 22.6001C1201.13 22.6001 1200.07 22.8668 1201.4 23.2668Z"
            fill="#f8717180" />
        <path
            d="M1377.4 23.2668C1379.4 23.5335 1382.33 23.5335 1384.07 23.2668C1385.67 23.0001 1384.07 22.7335 1380.33 22.7335C1376.73 22.7335 1375.27 23.0001 1377.4 23.2668Z"
            fill="#f8717180" />
        <path
            d="M1642.07 23.2668C1645.13 23.5335 1649.93 23.5335 1652.73 23.2668C1655.4 23.0001 1652.87 22.7335 1647 22.7335C1641.13 22.7335 1638.87 23.0001 1642.07 23.2668Z"
            fill="#f8717180" />
        <path
            d="M15.6668 24.9999L0.333496 25.7999L19.6668 26.0666C30.3335 26.1999 39.9335 25.6666 41.0002 24.9999C43.1335 23.5333 42.4668 23.5333 15.6668 24.9999Z"
            fill="#f8717180" />
        <path
            d="M308.867 24.1999C308.334 24.7333 249 25.2666 176.867 25.3999L45.667 25.6666L153.667 26.3333C213.134 26.7333 259.534 27.3999 257 27.7999C254.467 28.1999 258.067 28.3333 265 28.0666C271.934 27.6666 286.334 26.9999 296.867 26.5999C323.4 25.2666 462.6 26.3333 457.667 27.7999C454.467 28.7333 455 28.7333 460.067 28.3333C463.534 27.9333 473 27.2666 481.134 26.8666C489.134 26.3333 496.067 25.2666 496.6 24.5999C497.134 23.6666 495.8 23.5333 492.867 24.1999C487.4 25.2666 324.2 25.2666 315.667 24.1999C312.334 23.7999 309.267 23.7999 308.867 24.1999Z"
            fill="#f8717180" />
        <path
            d="M1212.07 24.5999C1212.6 25.2666 1219.53 26.3333 1227.53 26.8666C1235.67 27.2666 1245.13 27.9333 1248.6 28.3333C1253.67 28.7333 1254.2 28.7333 1251 27.7999C1246.07 26.3333 1385.27 25.2666 1411.8 26.5999C1422.33 26.9999 1436.73 27.6666 1443.67 28.0666C1450.6 28.3333 1454.2 28.1999 1451.67 27.7999C1449.13 27.3999 1495.67 26.7333 1555 26.3333L1663 25.6666L1532.33 25.1333C1460.47 24.8666 1399.27 24.5999 1396.33 24.5999C1393.4 24.5999 1352.6 24.7333 1305.67 24.8666C1258.73 24.9999 1218.33 24.7333 1215.8 24.1999C1212.87 23.5333 1211.53 23.6666 1212.07 24.5999Z"
            fill="#f8717180" />
        <path
            d="M1667.67 24.9999C1669.53 26.1999 1708.87 26.9999 1707.53 25.7999C1707.27 25.5333 1697.67 24.9999 1686.33 24.5999C1673 24.0666 1666.33 24.1999 1667.67 24.9999Z"
            fill="#f8717180" />
        <path
            d="M223 30.3333L213.667 31.1333L221.667 31.2666C226.067 31.2666 233.934 30.8666 239 30.3333L248.334 29.3999H240.334C235.934 29.3999 228.2 29.7999 223 30.3333Z"
            fill="#f8717180" />
        <path
            d="M1469.67 30.3333C1474.87 30.8666 1482.6 31.2666 1487 31.2666H1495L1485 30.3333C1479.53 29.7999 1471.67 29.3999 1467.67 29.3999C1460.6 29.3999 1460.6 29.3999 1469.67 30.3333Z"
            fill="#f8717180" />
    </g>
    <defs>
        <clipPath id="clip0_68_98">
            <rect width="1708" height="464" fill="white" />
        </clipPath>
    </defs>
</svg>