<svg width="1400" height="1060" viewBox="0 0 1400 1060" fill="none" xmlns="http://www.w3.org/2000/svg">
    <g clip-path="url(#clip0_64_83)">
        <path
            d="M101.514 0H1298.49C1333.78 0 1346.58 3.6202 1359.49 10.4182C1372.39 17.2162 1382.52 27.1919 1389.42 39.903C1396.32 52.6141 1400 65.2223 1400 99.9915V960.008C1400 994.778 1396.32 1007.39 1389.42 1020.1C1382.52 1032.81 1372.39 1042.78 1359.49 1049.58C1346.58 1056.38 1333.78 1060 1298.49 1060H101.514C66.2155 1060 53.4154 1056.38 40.5107 1049.58C27.606 1042.78 17.4783 1032.81 10.5768 1020.1C3.67533 1007.39 0 994.778 0 960.008V99.9915C0 65.2223 3.67533 52.6141 10.5768 39.903C17.4783 27.1919 27.606 17.2162 40.5107 10.4182C53.4154 3.6202 66.2155 0 101.514 0ZM86.8891 91.9272V968.073H1313.11V91.9272H86.8891Z"
            fill="#f87171" />
        <path
            d="M1165.85 742.11H1349.1V828.221H319.389V986.017H232.125V828.221H68.2334V742.11H232.125V42.0168H319.389V742.11H1078.58V63.5H1165.85V228.591H1354.92V314.703H1165.85V742.11Z"
            fill="#f87171" />
    </g>
    <defs>
        <clipPath id="clip0_64_83">
            <rect width="1400" height="1060" fill="white" />
        </clipPath>
    </defs>
</svg>