<svg width="480" height="482" viewBox="0 0 480 482" fill="none" xmlns="http://www.w3.org/2000/svg" opacity="0.25">
    <g clip-path="url(#clip0_47_210)">
        <path d="M480 0.260742H0V481.261H480V0.260742Z" fill="#09090B" />
        <path
            d="M443.52 57.1148C444.519 57.0825 445.509 57.3112 446.393 57.7784C447.277 58.2456 448.024 58.9353 448.561 59.7795C449.099 60.6238 449.408 61.5937 449.458 62.5939C449.508 63.5941 449.298 64.5902 448.848 65.4842C445.667 72.7427 445.37 80.9441 448.018 88.4145C450.666 95.8848 456.059 102.061 463.096 105.682C470.134 109.303 478.285 110.097 485.887 107.9C493.488 105.704 499.967 100.683 504 93.8632C504.697 92.5205 505.893 91.5059 507.329 91.0381C508.766 90.5703 510.328 90.6866 511.68 91.362C513.024 92.0354 514.032 93.2379 514.512 94.729C514.896 96.0277 514.752 97.615 514.032 98.9618C511.501 103.914 508.018 108.316 503.784 111.915C499.55 115.513 494.648 118.239 489.36 119.933C484.066 121.661 478.483 122.321 472.933 121.876C467.383 121.432 461.976 119.891 457.023 117.342C452.07 114.793 447.67 111.288 444.075 107.027C440.481 102.766 437.763 97.8345 436.08 92.5164C434.368 87.2228 433.716 81.6426 434.16 76.0959C434.605 70.5492 436.138 65.145 438.672 60.1932C439.125 59.2976 439.809 58.5399 440.653 57.9986C441.497 57.4573 442.47 57.1521 443.472 57.1148H443.52ZM-36.4802 57.1148C-35.4813 57.0825 -34.4913 57.3112 -33.6074 57.7784C-32.7234 58.2456 -31.976 58.9353 -31.4385 59.7795C-30.901 60.6238 -30.592 61.5937 -30.5418 62.5939C-30.4916 63.5941 -30.702 64.5902 -31.1522 65.4842C-34.8677 72.8115 -35.5398 81.3141 -33.0218 89.1362C-30.5038 96.9583 -25.0002 103.465 -17.7122 107.235C-10.4118 110.965 -1.93598 111.653 5.86825 109.148C13.6725 106.644 20.1725 101.15 23.9518 93.8632C24.649 92.5205 25.8446 91.5059 27.2811 91.0381C28.7177 90.5703 30.2801 90.6866 31.6318 91.362C33.0718 92.0354 34.0318 93.2379 34.5118 94.729C34.8958 96.0277 34.7518 97.615 34.0318 98.9618C31.5028 103.915 28.0209 108.318 23.7866 111.918C19.5523 115.517 14.6492 118.241 9.3598 119.933C4.06548 121.654 -1.51603 122.31 -7.06392 121.862C-12.6118 121.414 -18.0167 119.872 -22.9679 117.324C-27.9191 114.776 -32.319 111.273 -35.9147 107.016C-39.5104 102.758 -42.231 97.8308 -43.9202 92.5164C-45.6321 87.2228 -46.2843 81.6426 -45.8395 76.0959C-45.3947 70.5492 -43.8617 65.145 -41.3282 60.1932C-40.875 59.2976 -40.1908 58.5399 -39.3468 57.9986C-38.5028 57.4573 -37.5296 57.1521 -36.5282 57.1148H-36.4802ZM258.72 130.515C267.552 130.804 275.904 134.171 282.624 140.087C283.292 140.687 283.793 141.449 284.079 142.301C284.365 143.152 284.426 144.063 284.256 144.945C284.031 146.06 283.45 147.07 282.601 147.825C281.753 148.58 280.683 149.038 279.552 149.13C278.16 149.226 276.864 148.793 275.808 147.831C270.182 143.393 263.074 141.28 255.943 141.927C248.812 142.573 242.199 145.929 237.458 151.307C232.718 156.684 230.211 163.675 230.452 170.846C230.692 178.017 233.662 184.824 238.752 189.871C239.269 190.304 239.693 190.838 239.999 191.441C240.305 192.043 240.486 192.701 240.53 193.376C240.575 194.05 240.483 194.726 240.26 195.364C240.037 196.002 239.687 196.587 239.232 197.086C238.272 198.144 237.072 198.769 235.68 198.866C234.336 198.962 232.992 198.481 231.984 197.567C228.207 194.243 225.126 190.203 222.918 185.678C220.71 181.154 219.419 176.236 219.12 171.208C218.775 166.176 219.431 161.126 221.049 156.35C222.668 151.574 225.217 147.168 228.548 143.387C231.879 139.606 235.926 136.526 240.454 134.324C244.983 132.123 249.902 130.845 254.928 130.564C256.176 130.467 257.472 130.467 258.72 130.515ZM224.256 242.781C230.639 242.471 237.016 243.52 242.965 245.86C248.915 248.2 254.301 251.777 258.77 256.356C263.239 260.935 266.689 266.411 268.891 272.423C271.094 278.435 271.999 284.847 271.548 291.235C271.097 297.624 269.3 303.844 266.275 309.485C263.25 315.127 259.065 320.062 253.998 323.964C248.93 327.867 243.095 330.649 236.876 332.126C230.657 333.603 224.196 333.743 217.92 332.535C206.893 330.635 196.964 324.696 190.06 315.873C183.156 307.049 179.771 295.97 180.56 284.785C181.35 273.601 186.258 263.109 194.333 255.347C202.407 247.586 213.072 243.107 224.256 242.781ZM224.544 251.343C219.741 251.491 215.014 252.586 210.633 254.565C206.252 256.544 202.303 259.369 199.011 262.877C195.719 266.385 193.15 270.509 191.448 275.013C189.747 279.517 188.948 284.312 189.096 289.125C189.244 293.938 190.337 298.675 192.312 303.065C194.287 307.455 197.105 311.413 200.606 314.711C204.107 318.01 208.223 320.585 212.717 322.29C217.211 323.994 221.997 324.795 226.8 324.647C236.5 324.347 245.685 320.198 252.333 313.113C258.98 306.027 262.547 296.585 262.248 286.864C261.949 277.144 257.808 267.94 250.737 261.279C243.666 254.617 234.244 251.043 224.544 251.343ZM121.824 331.814L145.008 376.21L79.1038 410.698L55.9678 366.35L121.824 331.814Z"
            fill="#DC2828" />
        <path
            d="M517.92 252.882C525.6 252.882 532.32 248.168 536.064 240.328C538.656 234.893 543.12 231.67 548.064 231.67C553.056 231.67 557.568 234.893 560.112 240.328C563.856 248.216 570.672 252.834 578.352 252.834C585.984 252.834 592.752 248.168 596.496 240.328C599.04 234.893 603.552 231.67 608.496 231.67C612.624 231.67 616.416 233.882 619.056 237.779C620.016 239.173 621.84 239.703 623.328 238.981H623.424C623.862 238.777 624.251 238.481 624.565 238.113C624.879 237.745 625.109 237.313 625.242 236.848C625.374 236.382 625.404 235.893 625.331 235.415C625.257 234.936 625.081 234.479 624.816 234.075C623.083 231.291 620.681 228.987 617.83 227.374C614.979 225.76 611.77 224.889 608.496 224.84C600.816 224.84 594.096 229.553 590.352 237.394C587.76 242.781 583.248 246.052 578.352 246.052C573.36 246.052 568.848 242.781 566.304 237.394C562.56 229.505 555.744 224.888 548.064 224.888C540.432 224.888 533.664 229.553 529.92 237.394C527.376 242.781 522.864 246.052 517.92 246.052C512.928 246.052 508.464 242.781 505.92 237.394C502.176 229.505 495.36 224.888 487.68 224.888C480.096 224.888 473.28 229.457 469.584 237.298C469.205 238.069 469.118 238.952 469.338 239.784C469.559 240.615 470.072 241.338 470.784 241.819C472.56 242.925 474.864 242.204 475.728 240.376C478.272 234.989 482.784 231.718 487.728 231.718C492.72 231.718 497.184 234.989 499.728 240.376C503.424 248.216 510.288 252.882 517.92 252.882ZM517.728 229.265C525.408 229.265 532.176 224.551 535.92 216.711C538.464 211.275 542.976 208.053 547.92 208.053C552.912 208.053 557.376 211.275 559.92 216.711C563.664 224.599 570.48 229.217 578.16 229.217C585.84 229.217 592.56 224.551 596.304 216.711C598.896 211.275 603.36 208.053 608.304 208.053C613.296 208.053 617.808 211.275 620.352 216.711C620.746 217.54 621.454 218.178 622.318 218.485C623.182 218.791 624.132 218.742 624.96 218.346C625.787 217.951 626.424 217.242 626.73 216.376C627.036 215.51 626.986 214.558 626.592 213.729C622.848 205.84 616.032 201.223 608.352 201.223C600.72 201.223 593.952 205.888 590.208 213.729C587.616 219.164 583.152 222.387 578.208 222.387C573.216 222.387 568.704 219.164 566.16 213.729C562.416 205.84 555.6 201.223 547.968 201.223C540.288 201.223 533.52 205.888 529.776 213.729C527.232 219.164 522.72 222.387 517.776 222.387C512.832 222.387 508.32 219.164 505.776 213.729C502.032 205.84 495.216 201.223 487.536 201.223C479.904 201.223 473.136 205.888 469.392 213.729C468.997 214.558 468.947 215.51 469.253 216.376C469.56 217.242 470.196 217.951 471.024 218.346C471.851 218.742 472.802 218.791 473.666 218.485C474.53 218.178 475.237 217.54 475.632 216.711C478.176 211.275 482.64 208.053 487.632 208.053C492.576 208.053 497.088 211.275 499.632 216.711C503.28 224.551 510.096 229.217 517.728 229.217V229.265ZM205.728 -92.428L123.696 -33.0245L41.8558 26.4271L134.16 67.7931L226.512 109.207L216.096 8.43773L205.728 -92.428ZM205.728 388.572L123.696 447.976L41.8558 507.427L134.16 548.793L226.512 590.207L216.096 489.39L205.728 388.572ZM37.9198 252.882C45.5998 252.882 52.3198 248.168 56.0638 240.328C58.6558 234.893 63.1198 231.67 68.0638 231.67C73.0558 231.67 77.5678 234.893 80.1118 240.328C83.8558 248.216 90.6718 252.834 98.3518 252.834C105.984 252.834 112.752 248.168 116.496 240.328C119.04 234.893 123.552 231.67 128.496 231.67C132.624 231.67 136.416 233.882 139.056 237.779C140.016 239.173 141.792 239.703 143.328 238.981H143.424C143.862 238.777 144.251 238.481 144.565 238.113C144.879 237.745 145.11 237.313 145.242 236.848C145.374 236.382 145.404 235.893 145.331 235.415C145.257 234.936 145.082 234.479 144.816 234.075C143.083 231.291 140.681 228.987 137.83 227.374C134.979 225.76 131.77 224.889 128.496 224.84C120.816 224.84 114.048 229.553 110.352 237.394C107.76 242.781 103.248 246.052 98.3518 246.052C93.3598 246.052 88.8478 242.781 86.3038 237.394C82.5598 229.505 75.7438 224.888 68.0638 224.888C60.4318 224.888 53.6638 229.553 49.9198 237.394C47.3758 242.781 42.8638 246.052 37.9198 246.052C32.9278 246.052 28.4638 242.781 25.9198 237.394C22.1758 229.505 15.3598 224.888 7.67984 224.888C0.0958443 224.888 -6.72016 229.457 -10.4162 237.298C-10.795 238.069 -10.8822 238.952 -10.6616 239.784C-10.441 240.615 -9.92755 241.338 -9.21616 241.819C-7.44016 242.925 -5.13616 242.204 -4.27216 240.376C-1.72816 234.989 2.78384 231.718 7.72784 231.718C12.7198 231.718 17.1838 234.989 19.7278 240.376C23.4238 248.216 30.2398 252.882 37.9198 252.882ZM37.7278 229.265C45.4078 229.265 52.1758 224.551 55.9198 216.711C58.4638 211.275 62.9758 208.053 67.9198 208.053C72.9118 208.053 77.3758 211.275 79.9198 216.711C83.6638 224.599 90.4798 229.217 98.1598 229.217C105.792 229.217 112.56 224.551 116.304 216.711C118.896 211.275 123.36 208.053 128.304 208.053C133.296 208.053 137.808 211.275 140.352 216.711C140.746 217.54 141.454 218.178 142.318 218.485C142.746 218.637 143.199 218.703 143.653 218.679C144.106 218.655 144.55 218.542 144.96 218.346C145.37 218.15 145.737 217.876 146.041 217.538C146.344 217.199 146.579 216.805 146.73 216.376C146.882 215.947 146.948 215.493 146.924 215.038C146.9 214.584 146.787 214.139 146.592 213.729C142.848 205.84 136.032 201.223 128.352 201.223C120.72 201.223 113.952 205.888 110.208 213.729C107.616 219.164 103.152 222.387 98.2078 222.387C93.2158 222.387 88.7038 219.164 86.1598 213.729C82.4158 205.84 75.5998 201.223 67.9678 201.223C60.2878 201.223 53.5198 205.888 49.7758 213.729C47.2318 219.164 42.7198 222.387 37.7758 222.387C32.8318 222.387 28.3198 219.164 25.7758 213.729C22.0318 205.84 15.2158 201.223 7.53584 201.223C-0.0961561 201.223 -6.86416 205.888 -10.6082 213.729C-11.0028 214.558 -11.0526 215.51 -10.7465 216.376C-10.4404 217.242 -9.80363 217.951 -8.97616 218.346C-8.14868 218.742 -7.19833 218.791 -6.33416 218.485C-5.46999 218.178 -4.7628 217.54 -4.36816 216.711C-1.82416 211.275 2.63984 208.053 7.63184 208.053C12.5758 208.053 17.0878 211.275 19.6318 216.711C23.2798 224.551 30.0478 229.217 37.7278 229.217V229.265Z"
            fill="#17A9FD" />
        <path
            d="M254.592 390.159C255.012 392.679 256.414 394.928 258.489 396.412C260.564 397.896 263.142 398.493 265.656 398.072C268.17 397.651 270.415 396.246 271.895 394.167C273.376 392.088 273.972 389.504 273.552 386.985C273.344 385.737 272.893 384.543 272.224 383.47C271.556 382.397 270.683 381.467 269.655 380.732C268.628 379.998 267.466 379.473 266.236 379.188C265.007 378.903 263.733 378.864 262.488 379.072C261.243 379.281 260.051 379.733 258.981 380.403C257.91 381.073 256.982 381.948 256.248 382.977C254.768 385.056 254.172 387.64 254.592 390.159ZM71.4719 307.716C74.4745 310.379 78.3778 311.793 82.3854 311.67C86.393 311.548 90.2031 309.898 93.0382 307.057C95.8733 304.216 97.52 300.398 97.6422 296.382C97.7644 292.366 96.353 288.454 93.6959 285.446C90.745 282.5 86.7493 280.845 82.5839 280.845C78.4185 280.845 74.4228 282.5 71.4719 285.446C70.0047 286.903 68.84 288.638 68.0453 290.549C67.2505 292.46 66.8413 294.51 66.8413 296.581C66.8413 298.651 67.2505 300.701 68.0453 302.612C68.84 304.524 70.0047 306.258 71.4719 307.716ZM324.912 54.9985C326.506 62.2018 330.797 68.5178 336.9 72.6447C343.004 76.7716 350.454 78.3948 357.717 77.1799C364.979 75.9649 371.5 72.0043 375.934 66.1144C380.369 60.2245 382.38 52.8543 381.552 45.5228C379.958 38.3195 375.667 32.0035 369.564 27.8766C363.46 23.7497 356.01 22.1264 348.747 23.3414C341.485 24.5564 334.964 28.517 330.53 34.4069C326.095 40.2968 324.084 47.667 324.912 54.9985Z"
            fill="#5966F3" />
        <path
            d="M385.776 310.987C394.333 311.347 402.735 313.392 410.504 317.006C418.272 320.62 425.253 325.732 431.05 332.05C436.846 338.368 441.344 345.768 444.287 353.828C447.23 361.888 448.559 370.449 448.2 379.024C447.841 387.599 445.8 396.019 442.193 403.803C438.587 411.587 433.485 418.584 427.181 424.392C420.876 430.201 413.491 434.708 405.448 437.657C397.405 440.606 388.861 441.938 380.304 441.578C363.029 440.851 346.75 433.277 335.047 420.522C323.345 407.767 317.178 390.876 317.904 373.565C318.63 356.254 326.188 339.94 338.917 328.214C351.645 316.487 368.501 310.308 385.776 311.035V310.987ZM128.784 125.994L120.768 148.938L112.704 171.93L96.8641 153.459L81.1201 134.941L104.976 130.467L128.784 125.994ZM389.52 201.607L397.968 224.359L406.512 247.158L382.56 243.166L358.608 239.125L374.064 220.366L389.52 201.607Z"
            fill="#18181B" />
    </g>
    <defs>
        <clipPath id="clip0_47_210">
            <rect width="480" height="481" fill="white" transform="translate(0 0.260742)" />
        </clipPath>
    </defs>
</svg>